{
    "asset" : {
        "generator" : "Khronos glTF Blender I/O v1.7.33",
        "version" : "2.0"
    },
    "scene" : 0,
    "scenes" : [
        {
            "name" : "Scene",
            "nodes" : [
                0
            ]
        }
    ],
    "nodes" : [
        {
            "mesh" : 0,
            "name" : "Stanford Bunny"
        }
    ],
    "materials" : [
        {
            "doubleSided" : true,
            "name" : "Wood Light",
            "pbrMetallicRoughness" : {
                "roughnessFactor" : 0.5641101002693176
            }
        }
    ],
    "meshes" : [
        {
            "name" : "Stanford Bunny-mesh",
            "primitives" : [
                {
                    "attributes" : {
                        "POSITION" : 0,
                        "NORMAL" : 1,
                        "TEXCOORD_0" : 2
                    },
                    "indices" : 3,
                    "material" : 0
                }
            ]
        }
    ],
    "accessors" : [
        {
            "bufferView" : 0,
            "componentType" : 5126,
            "count" : 15258,
            "max" : [
                0.619050145149231,
                0.854532778263092,
                0.3870750069618225
            ],
            "min" : [
                -0.628015398979187,
                -0.3803800046443939,
                -0.5789293050765991
            ],
            "type" : "VEC3"
        },
        {
            "bufferView" : 1,
            "componentType" : 5126,
            "count" : 15258,
            "type" : "VEC3"
        },
        {
            "bufferView" : 2,
            "componentType" : 5126,
            "count" : 15258,
            "type" : "VEC2"
        },
        {
            "bufferView" : 3,
            "componentType" : 5123,
            "count" : 91014,
            "type" : "SCALAR"
        }
    ],
    "bufferViews" : [
        {
            "buffer" : 0,
            "byteLength" : 183096,
            "byteOffset" : 0
        },
        {
            "buffer" : 0,
            "byteLength" : 183096,
            "byteOffset" : 183096
        },
        {
            "buffer" : 0,
            "byteLength" : 122064,
            "byteOffset" : 366192
        },
        {
            "buffer" : 0,
            "byteLength" : 182028,
            "byteOffset" : 488256
        }
    ],
    "buffers" : [
        {
            "byteLength" : 670284,
            "uri" : "data:application/octet-stream;base64,"
        }
    ]
}
