{
    "asset" : {
        "generator" : "Khronos glTF Blender I/O v1.7.33",
        "version" : "2.0"
    },
    "scene" : 0,
    "scenes" : [
        {
            "name" : "Scene",
            "nodes" : [
                0
            ]
        }
    ],
    "nodes" : [
        {
            "mesh" : 0,
            "name" : "Stanford Bunny",
            "rotation" : [
                0.7071068286895752,
                0,
                0,
                0.7071067094802856
            ]
        }
    ],
    "meshes" : [
        {
            "name" : "Stanford Bunny-mesh.001",
            "primitives" : [
                {
                    "attributes" : {
                        "POSITION" : 0,
                        "NORMAL" : 1,
                        "TEXCOORD_0" : 2
                    },
                    "indices" : 3
                }
            ]
        }
    ],
    "accessors" : [
        {
            "bufferView" : 0,
            "componentType" : 5126,
            "count" : 19204,
            "max" : [
                2.7461936473846436,
                2.7461934089660645,
                0.059569165110588074
            ],
            "min" : [
                -2.7461936473846436,
                -2.7461941242218018,
                -4.445625305175781
            ],
            "type" : "VEC3"
        },
        {
            "bufferView" : 1,
            "componentType" : 5126,
            "count" : 19204,
            "type" : "VEC3"
        },
        {
            "bufferView" : 2,
            "componentType" : 5126,
            "count" : 19204,
            "type" : "VEC2"
        },
        {
            "bufferView" : 3,
            "componentType" : 5123,
            "count" : 91050,
            "type" : "SCALAR"
        }
    ],
    "bufferViews" : [
        {
            "buffer" : 0,
            "byteLength" : 230448,
            "byteOffset" : 0
        },
        {
            "buffer" : 0,
            "byteLength" : 230448,
            "byteOffset" : 230448
        },
        {
            "buffer" : 0,
            "byteLength" : 153632,
            "byteOffset" : 460896
        },
        {
            "buffer" : 0,
            "byteLength" : 182100,
            "byteOffset" : 614528
        }
    ],
    "buffers" : [
        {
            "byteLength" : 796628,
            "uri" : "data:application/octet-stream;base64,"
        }
    ]
}
