{
    "asset" : {
        "generator" : "Khronos glTF Blender I/O v1.7.33",
        "version" : "2.0"
    },
    "scene" : 0,
    "scenes" : [
        {
            "name" : "Scene",
            "nodes" : [
                0
            ]
        }
    ],
    "nodes" : [
        {
            "mesh" : 0,
            "name" : "body"
        }
    ],
    "meshes" : [
        {
            "name" : "body.002",
            "primitives" : [
                {
                    "attributes" : {
                        "POSITION" : 0,
                        "NORMAL" : 1,
                        "TEXCOORD_0" : 2,
                        "COLOR_0" : 3
                    },
                    "indices" : 4
                }
            ]
        }
    ],
    "accessors" : [
        {
            "bufferView" : 0,
            "componentType" : 5126,
            "count" : 8480,
            "max" : [
                0.8543745279312134,
                2.027632236480713,
                0.209596648812294
            ],
            "min" : [
                -0.8543745279312134,
                -7.872470632719342e-06,
                -0.2055835872888565
            ],
            "type" : "VEC3"
        },
        {
            "bufferView" : 1,
            "componentType" : 5126,
            "count" : 8480,
            "type" : "VEC3"
        },
        {
            "bufferView" : 2,
            "componentType" : 5126,
            "count" : 8480,
            "type" : "VEC2"
        },
        {
            "bufferView" : 3,
            "componentType" : 5123,
            "count" : 8480,
            "normalized" : true,
            "type" : "VEC4"
        },
        {
            "bufferView" : 4,
            "componentType" : 5123,
            "count" : 37686,
            "type" : "SCALAR"
        }
    ],
    "bufferViews" : [
        {
            "buffer" : 0,
            "byteLength" : 101760,
            "byteOffset" : 0
        },
        {
            "buffer" : 0,
            "byteLength" : 101760,
            "byteOffset" : 101760
        },
        {
            "buffer" : 0,
            "byteLength" : 67840,
            "byteOffset" : 203520
        },
        {
            "buffer" : 0,
            "byteLength" : 67840,
            "byteOffset" : 271360
        },
        {
            "buffer" : 0,
            "byteLength" : 75372,
            "byteOffset" : 339200
        }
    ],
    "buffers" : [
        {
            "byteLength" : 414572,
            "uri" : "data:application/octet-stream;base64,"
        }
    ]
}
