{
    "asset" : {
        "generator" : "Khronos glTF Blender I/O v1.7.33",
        "version" : "2.0"
    },
    "scene" : 0,
    "scenes" : [
        {
            "name" : "Scene",
            "nodes" : [
                0
            ]
        }
    ],
    "nodes" : [
        {
            "mesh" : 0,
            "name" : "Stanford Bunny",
            "rotation" : [
                0.7071068286895752,
                0,
                0,
                0.7071067094802856
            ]
        }
    ],
    "meshes" : [
        {
            "name" : "Stanford Bunny-mesh.001",
            "primitives" : [
                {
                    "attributes" : {
                        "POSITION" : 0,
                        "NORMAL" : 1,
                        "TEXCOORD_0" : 2
                    },
                    "indices" : 3
                }
            ]
        }
    ],
    "accessors" : [
        {
            "bufferView" : 0,
            "componentType" : 5126,
            "count" : 19240,
            "max" : [
                0.48041123151779175,
                0.37213754653930664,
                -0.0024151504039764404
            ],
            "min" : [
                -0.48041123151779175,
                -0.37213772535324097,
                -0.9538754224777222
            ],
            "type" : "VEC3"
        },
        {
            "bufferView" : 1,
            "componentType" : 5126,
            "count" : 19240,
            "type" : "VEC3"
        },
        {
            "bufferView" : 2,
            "componentType" : 5126,
            "count" : 19240,
            "type" : "VEC2"
        },
        {
            "bufferView" : 3,
            "componentType" : 5123,
            "count" : 91014,
            "type" : "SCALAR"
        }
    ],
    "bufferViews" : [
        {
            "buffer" : 0,
            "byteLength" : 230880,
            "byteOffset" : 0
        },
        {
            "buffer" : 0,
            "byteLength" : 230880,
            "byteOffset" : 230880
        },
        {
            "buffer" : 0,
            "byteLength" : 153920,
            "byteOffset" : 461760
        },
        {
            "buffer" : 0,
            "byteLength" : 182028,
            "byteOffset" : 615680
        }
    ],
    "buffers" : [
        {
            "byteLength" : 797708,
            "uri" : "data:application/octet-stream;base64,"
        }
    ]
}
