{
    "asset" : {
        "generator" : "Khronos glTF Blender I/O v1.7.33",
        "version" : "2.0"
    },
    "scene" : 0,
    "scenes" : [
        {
            "name" : "Scene",
            "nodes" : [
                0
            ]
        }
    ],
    "nodes" : [
        {
            "mesh" : 0,
            "name" : "Cube"
        }
    ],
    "meshes" : [
        {
            "name" : "Cube.001",
            "primitives" : [
                {
                    "attributes" : {
                        "POSITION" : 0,
                        "NORMAL" : 1,
                        "TEXCOORD_0" : 2
                    },
                    "indices" : 3
                }
            ]
        }
    ],
    "accessors" : [
        {
            "bufferView" : 0,
            "componentType" : 5126,
            "count" : 2874,
            "max" : [
                1.6130036115646362,
                1.6529786586761475,
                1.3357802629470825
            ],
            "min" : [
                -1.6130036115646362,
                -1.6529786586761475,
                -1.3357802629470825
            ],
            "type" : "VEC3"
        },
        {
            "bufferView" : 1,
            "componentType" : 5126,
            "count" : 2874,
            "type" : "VEC3"
        },
        {
            "bufferView" : 2,
            "componentType" : 5126,
            "count" : 2874,
            "type" : "VEC2"
        },
        {
            "bufferView" : 3,
            "componentType" : 5123,
            "count" : 4356,
            "type" : "SCALAR"
        }
    ],
    "bufferViews" : [
        {
            "buffer" : 0,
            "byteLength" : 34488,
            "byteOffset" : 0
        },
        {
            "buffer" : 0,
            "byteLength" : 34488,
            "byteOffset" : 34488
        },
        {
            "buffer" : 0,
            "byteLength" : 22992,
            "byteOffset" : 68976
        },
        {
            "buffer" : 0,
            "byteLength" : 8712,
            "byteOffset" : 91968
        }
    ],
    "buffers" : [
        {
            "byteLength" : 100680,
            "uri" : "data:application/octet-stream;base64,"
        }
    ]
}
