{
    "asset" : {
        "generator" : "Khronos glTF Blender I/O v1.7.33",
        "version" : "2.0"
    },
    "scene" : 0,
    "scenes" : [
        {
            "name" : "Scene",
            "nodes" : [
                0
            ]
        }
    ],
    "nodes" : [
        {
            "mesh" : 0,
            "name" : "Sphere"
        }
    ],
    "meshes" : [
        {
            "name" : "Sphere",
            "primitives" : [
                {
                    "attributes" : {
                        "POSITION" : 0,
                        "NORMAL" : 1,
                        "TEXCOORD_0" : 2
                    },
                    "indices" : 3
                }
            ]
        }
    ],
    "accessors" : [
        {
            "bufferView" : 0,
            "componentType" : 5126,
            "count" : 3913,
            "max" : [
                0.9305971264839172,
                0.8730107545852661,
                0.8714438080787659
            ],
            "min" : [
                -0.8041264414787292,
                -0.4441964030265808,
                -0.7224534749984741
            ],
            "type" : "VEC3"
        },
        {
            "bufferView" : 1,
            "componentType" : 5126,
            "count" : 3913,
            "type" : "VEC3"
        },
        {
            "bufferView" : 2,
            "componentType" : 5126,
            "count" : 3913,
            "type" : "VEC2"
        },
        {
            "bufferView" : 3,
            "componentType" : 5123,
            "count" : 20160,
            "type" : "SCALAR"
        }
    ],
    "bufferViews" : [
        {
            "buffer" : 0,
            "byteLength" : 46956,
            "byteOffset" : 0
        },
        {
            "buffer" : 0,
            "byteLength" : 46956,
            "byteOffset" : 46956
        },
        {
            "buffer" : 0,
            "byteLength" : 31304,
            "byteOffset" : 93912
        },
        {
            "buffer" : 0,
            "byteLength" : 40320,
            "byteOffset" : 125216
        }
    ],
    "buffers" : [
        {
            "byteLength" : 165536,
            "uri" : "data:application/octet-stream;base64,"
        }
    ]
}
