{
    "asset" : {
        "generator" : "Khronos glTF Blender I/O v1.7.33",
        "version" : "2.0"
    },
    "scene" : 0,
    "scenes" : [
        {
            "name" : "Scene",
            "nodes" : [
                0
            ]
        }
    ],
    "nodes" : [
        {
            "mesh" : 0,
            "name" : "Sphere"
        }
    ],
    "meshes" : [
        {
            "name" : "Sphere",
            "primitives" : [
                {
                    "attributes" : {
                        "POSITION" : 0,
                        "NORMAL" : 1,
                        "TEXCOORD_0" : 2
                    },
                    "indices" : 3
                }
            ]
        }
    ],
    "accessors" : [
        {
            "bufferView" : 0,
            "componentType" : 5126,
            "count" : 3917,
            "max" : [
                7.0295491218566895,
                0.8730107545852661,
                7.0295491218566895
            ],
            "min" : [
                -7.0295491218566895,
                -0.4441964030265808,
                -7.0295491218566895
            ],
            "type" : "VEC3"
        },
        {
            "bufferView" : 1,
            "componentType" : 5126,
            "count" : 3917,
            "type" : "VEC3"
        },
        {
            "bufferView" : 2,
            "componentType" : 5126,
            "count" : 3917,
            "type" : "VEC2"
        },
        {
            "bufferView" : 3,
            "componentType" : 5123,
            "count" : 20166,
            "type" : "SCALAR"
        }
    ],
    "bufferViews" : [
        {
            "buffer" : 0,
            "byteLength" : 47004,
            "byteOffset" : 0
        },
        {
            "buffer" : 0,
            "byteLength" : 47004,
            "byteOffset" : 47004
        },
        {
            "buffer" : 0,
            "byteLength" : 31336,
            "byteOffset" : 94008
        },
        {
            "buffer" : 0,
            "byteLength" : 40332,
            "byteOffset" : 125344
        }
    ],
    "buffers" : [
        {
            "byteLength" : 165676,
            "uri" : "data:application/octet-stream;base64,"
        }
    ]
}
