{
    "asset" : {
        "generator" : "Khronos glTF Blender I/O v1.6.16",
        "version" : "2.0"
    },
    "scene" : 0,
    "scenes" : [
        {
            "name" : "Scene",
            "nodes" : [
                0
            ]
        }
    ],
    "nodes" : [
        {
            "mesh" : 0,
            "name" : "Suzanne",
            "rotation" : [
                -0.4543454051017761,
                0.6357467174530029,
                0.24503527581691742,
                0.5738937854766846
            ],
            "scale" : [
                1.7199760675430298,
                1.7199758291244507,
                1.7199759483337402
            ],
            "translation" : [
                0,
                0,
                1.8756263256072998
            ]
        }
    ],
    "meshes" : [
        {
            "name" : "Suzanne",
            "primitives" : [
                {
                    "attributes" : {
                        "POSITION" : 0,
                        "NORMAL" : 1,
                        "TEXCOORD_0" : 2
                    },
                    "indices" : 3
                }
            ]
        }
    ],
    "accessors" : [
        {
            "bufferView" : 0,
            "componentType" : 5126,
            "count" : 4190,
            "max" : [
                1.3671875,
                1,
                0.9999999403953552
            ],
            "min" : [
                -1.3671875,
                -1,
                -0.9999999403953552
            ],
            "type" : "VEC3"
        },
        {
            "bufferView" : 1,
            "componentType" : 5126,
            "count" : 4190,
            "type" : "VEC3"
        },
        {
            "bufferView" : 2,
            "componentType" : 5126,
            "count" : 4190,
            "type" : "VEC2"
        },
        {
            "bufferView" : 3,
            "componentType" : 5123,
            "count" : 6024,
            "type" : "SCALAR"
        }
    ],
    "bufferViews" : [
        {
            "buffer" : 0,
            "byteLength" : 50280,
            "byteOffset" : 0
        },
        {
            "buffer" : 0,
            "byteLength" : 50280,
            "byteOffset" : 50280
        },
        {
            "buffer" : 0,
            "byteLength" : 33520,
            "byteOffset" : 100560
        },
        {
            "buffer" : 0,
            "byteLength" : 12048,
            "byteOffset" : 134080
        }
    ],
    "buffers" : [
        {
            "byteLength" : 146128,
            "uri" : "data:application/octet-stream;base64,"
        }
    ]
}
